<svg xmlns="http://www.w3.org/2000/svg" xmlns:xlink="http://www.w3.org/1999/xlink" width="500" zoomAndPan="magnify" viewBox="0 0 375 299.999988" height="400" preserveAspectRatio="xMidYMid meet" version="1.0"><path fill="rgb(0%, 0%, 0%)" d="M 212.917969 30 C 217.03125 30 221.167969 30 225.273438 30 C 258 33.882812 278.457031 46.808594 287.773438 67.960938 C 342.335938 65.140625 382.007812 105.132812 357.832031 144.386719 C 365.871094 152.636719 372.578125 161.863281 375 174.246094 C 375 177.792969 375 181.332031 375 184.878906 C 367.78125 216.394531 336.71875 237.691406 285.722656 231.957031 C 272.601562 248.140625 249.253906 264.453125 212.925781 262.328125 C 194.144531 261.265625 181.082031 255.113281 169.644531 247.636719 C 157.597656 253.851562 144.546875 258.726562 125.695312 258.78125 C 82.082031 258.875 52.90625 234.933594 52.199219 202.09375 C 24.160156 194.410156 5.171875 180.070312 0 155.53125 C 0 151.984375 0 148.429688 0 144.898438 C 5.707031 120.582031 23.664062 105.308594 53.566406 98.835938 C 51.769531 57.816406 111.574219 32.1875 160.710938 50.257812 C 172.40625 41.320312 188.960938 31.574219 212.917969 30 " fill-opacity="1" fill-rule="nonzero"/></svg>